<?xml version="1.0" encoding="utf-8"?>
<!-- Generator: Adobe Illustrator 18.0.0, SVG Export Plug-In . SVG Version: 6.00 Build 0)  -->
<!DOCTYPE svg PUBLIC "-//W3C//DTD SVG 1.1//EN" "http://www.w3.org/Graphics/SVG/1.1/DTD/svg11.dtd">
<svg version="1.1" id="Layer_1" xmlns="http://www.w3.org/2000/svg" xmlns:xlink="http://www.w3.org/1999/xlink" x="0px" y="0px"
	 viewBox="0 0 218 205.8" enable-background="new 0 0 218 205.8" xml:space="preserve">
<g>
	<path opacity="0.23" fill="#9E9E9E" d="M207.9,205.8H10.1c-5.6,0-10.1-4.5-10.1-10.1V35.8c0-5.6,4.5-10.1,10.1-10.1h197.8
		c5.6,0,10.1,4.5,10.1,10.1v159.9C218,201.3,213.5,205.8,207.9,205.8z"/>
	<path fill="#313131" d="M207.9,198.2H10.1c-5.6,0-10.1-4.5-10.1-10.1V28.2c0-5.6,4.5-10.1,10.1-10.1h197.8
		c5.6,0,10.1,4.5,10.1,10.1v159.9C218,193.7,213.5,198.2,207.9,198.2z"/>
	<rect x="102.2" y="18.2" fill="#1E1E1E" width="13.7" height="180.1"/>
	<path fill="#F9A769" d="M197.7,190.1H20c-5.2,0-9.4-4.2-9.4-9.4V27.5c0-5.2,4.2-9.4,9.4-9.4h177.8c5.2,0,9.4,4.2,9.4,9.4v153.2
		C207.1,185.9,202.9,190.1,197.7,190.1z"/>
	<path fill="#FFECDC" d="M107.5,180.7L107.5,180.7c-30.8-13.1-66.1-13.1-96.9,0l0,0V18.2l0,0c27.3-24.2,69.6-24.2,96.9,0l0,0V180.7z
		"/>
	<path fill="#F4E1D3" d="M207.4,180.7L207.4,180.7c-31.8-13.1-68.1-13.1-99.9,0l0,0V18.2l0,0c28.1-24.2,71.8-24.2,99.9,0l0,0V180.7z
		"/>
	<g>
		<path fill="none" stroke="#F9A769" stroke-width="5" stroke-linecap="round" stroke-linejoin="round" stroke-miterlimit="10" d="
			M16.5,39.5c0,0,32.6-16.7,85,0"/>
		<path fill="none" stroke="#F9A769" stroke-width="5" stroke-linecap="round" stroke-linejoin="round" stroke-miterlimit="10" d="
			M16.5,66.8c0,0,32.6-16.7,85,0"/>
		<path fill="none" stroke="#F9A769" stroke-width="5" stroke-linecap="round" stroke-linejoin="round" stroke-miterlimit="10" d="
			M16.5,94c0,0,32.6-16.7,85,0"/>
		<path fill="none" stroke="#F9A769" stroke-width="5" stroke-linecap="round" stroke-linejoin="round" stroke-miterlimit="10" d="
			M16.5,121.3c0,0,32.6-16.7,85,0"/>
		<path fill="none" stroke="#F9A769" stroke-width="5" stroke-linecap="round" stroke-linejoin="round" stroke-miterlimit="10" d="
			M16.5,148.5c0,0,32.6-16.7,85,0"/>
	</g>
	<g>
		<path fill="none" stroke="#F9A769" stroke-width="5" stroke-linecap="round" stroke-linejoin="round" stroke-miterlimit="10" d="
			M115.1,146.5c0,0,32.6-16.7,85,0"/>
		<path fill="none" stroke="#F9A769" stroke-width="5" stroke-linecap="round" stroke-linejoin="round" stroke-miterlimit="10" d="
			M115.1,120.3c0,0,32.6-16.7,85,0"/>
		<path fill="none" stroke="#F9A769" stroke-width="5" stroke-linecap="round" stroke-linejoin="round" stroke-miterlimit="10" d="
			M115.1,94c0,0,32.6-16.7,85,0"/>
		<path fill="none" stroke="#F9A769" stroke-width="5" stroke-linecap="round" stroke-linejoin="round" stroke-miterlimit="10" d="
			M115.1,67.8c0,0,32.6-16.7,85,0"/>
		<path fill="none" stroke="#F9A769" stroke-width="5" stroke-linecap="round" stroke-linejoin="round" stroke-miterlimit="10" d="
			M115.1,41.5c0,0,32.6-16.7,85,0"/>
	</g>
</g>
</svg>
