<?xml version="1.0" encoding="utf-8"?>
<!-- Generator: Adobe Illustrator 18.0.0, SVG Export Plug-In . SVG Version: 6.00 Build 0)  -->
<!DOCTYPE svg PUBLIC "-//W3C//DTD SVG 1.1//EN" "http://www.w3.org/Graphics/SVG/1.1/DTD/svg11.dtd">
<svg version="1.1" id="Layer_1" xmlns="http://www.w3.org/2000/svg" xmlns:xlink="http://www.w3.org/1999/xlink" x="0px" y="0px"
	 viewBox="0 0 127.8 70.5" enable-background="new 0 0 127.8 70.5" xml:space="preserve">
<g>
	<path opacity="0.1" fill="#494949" d="M0,39.9c0.2,0.1,0.4,0.2,0.6,0.3c0.6,0.2,1.1,0.5,1.7,0.7c0.9,0.4,1.7,0.7,2.6,1
		c1.1,0.4,2.2,0.8,3.3,1.2c1.3,0.4,2.5,0.9,3.8,1.3c1.4,0.4,2.7,0.8,4.1,1.2c1.4,0.4,2.8,0.7,4.2,0.9c1.4,0.2,2.7,0.4,4.1,0.6
		c1.2,0.1,2.5,0.1,3.8,0.1c1.1-0.1,2.2-0.2,3.2-0.6c1-0.3,2-0.8,2.8-1.7c0.7-0.8,1.4-1.7,1.9-2.6c0.2-0.3,0.4-0.7,0.6-1.1
		c0.3-0.5,0.5-1,0.7-1.5c0.3-0.7,0.6-1.4,0.9-2c0.4-0.9,0.7-1.8,1.1-2.7c0.4-1.1,0.8-2.2,1.2-3.4c0.5-1.4,1-2.7,1.4-4.1
		c0.5-1.7,1.1-3.3,1.6-5c0.6-2,1.2-3.9,1.8-5.9c0.4-1.2,0.7-2.5,1.1-3.7c0.3-1.2,0.6-2.4,1-3.5c0.5-1.5,1.3-2.9,2.3-4.1
		c0.5-0.7,1.1-1.4,1.8-1.9c0.7-0.5,1.4-1,2.2-1.2c0.9-0.2,1.8-0.2,2.6,0.1c1.1,0.4,2.1,1.2,3,2c1.3,1.3,2.3,2.9,3.3,4.5
		c0.8,1.4,1.3,2.9,2,4.4c0.3,0.7,0.7,1.3,1.2,1.9c2.1,2.6,6,3.2,8.7,1.3c0.5-0.4,1.1-0.9,1.7-1c1.1-0.1,2,0.8,2.4,1.8
		c0.9,1.9,1.9,3.7,2.7,5.6c0.5,1.1,1,2.3,1.5,3.4c0.6,1.4,1.2,2.8,1.8,4.3c0.7,1.7,1.4,3.5,2,5.2c0.8,2.1,1.6,4.2,2.3,6.3
		c0.6,1.8,0.8,3.2,2.7,3.8c0.7,0.2,1.5,0.5,2.3,0.6c2.5,0.6,5.2,0.7,7.7,0.7c8.9-0.2,17.7-2.8,26-5.9c-3,2.2-6.1,4.3-9.2,6.3
		c-7,4.6-14.3,8.9-21.8,12.7C86,65.7,74.1,71.3,61.6,70.4c-6.2-0.5-12-2.7-17.8-4.7c-6.2-2.1-12.2-4.7-18-7.6
		c-0.2-0.1-0.3-0.2-0.5-0.3C16,53.1,7.3,47.3,0,39.9z"/>
	<path fill="#F9E0CD" d="M0,37.9c0.2,0.1,0.4,0.2,0.6,0.3c0.6,0.2,1.1,0.5,1.7,0.7c0.9,0.4,1.7,0.7,2.6,1c1.1,0.4,2.2,0.8,3.3,1.2
		c1.3,0.4,2.5,0.9,3.8,1.3c1.4,0.4,2.7,0.8,4.1,1.2c1.4,0.4,2.8,0.7,4.2,0.9c1.4,0.2,2.7,0.4,4.1,0.6c1.2,0.1,2.5,0.1,3.8,0.1
		c1.1-0.1,2.2-0.2,3.2-0.6c1-0.3,2-0.8,2.8-1.7c0.7-0.8,1.4-1.7,1.9-2.6c0.2-0.3,0.4-0.7,0.6-1.1c0.3-0.5,0.5-1,0.7-1.5
		c0.3-0.7,0.6-1.4,0.9-2c0.4-0.9,0.7-1.8,1.1-2.7c0.4-1.1,0.8-2.2,1.2-3.4c0.5-1.4,1-2.7,1.4-4.1c0.5-1.7,1.1-3.3,1.6-5
		c0.6-2,1.2-3.9,1.8-5.9c0.4-1.2,0.7-2.5,1.1-3.7c0.3-1.2,0.6-2.4,1-3.5c0.5-1.5,1.3-2.9,2.3-4.1c0.5-0.7,1.1-1.4,1.8-1.9
		c0.7-0.5,1.4-1,2.2-1.2c0.9-0.2,1.8-0.2,2.6,0.1c1.1,0.4,2.1,1.2,3,2c1.3,1.3,2.3,2.9,3.3,4.5c0.8,1.4,1.3,2.9,2,4.4
		c0.3,0.7,0.7,1.3,1.2,1.9c2.1,2.6,6,3.2,8.7,1.3c0.5-0.4,1.1-0.9,1.7-1c1.1-0.1,2,0.8,2.4,1.8c0.9,1.9,1.9,3.7,2.7,5.6
		c0.5,1.1,1,2.3,1.5,3.4c0.6,1.4,1.2,2.8,1.8,4.3c0.7,1.7,1.4,3.5,2,5.2c0.8,2.1,1.6,4.2,2.3,6.3c0.6,1.8,0.8,3.2,2.7,3.8
		c0.7,0.2,1.5,0.5,2.3,0.6c2.5,0.6,5.2,0.7,7.7,0.7c8.9-0.2,17.7-2.8,26-5.9c-3,2.2-6.1,4.3-9.2,6.3c-7,4.6-14.3,8.9-21.8,12.7
		C86,63.7,74.1,69.3,61.6,68.4c-6.2-0.5-12-2.7-17.8-4.7c-6.2-2.1-12.2-4.7-18-7.6c-0.2-0.1-0.3-0.2-0.5-0.3
		C16,51.1,7.3,45.3,0,37.9z"/>
	<path opacity="0.27" fill="#D3CCC7" d="M51.6,18.1c0,0-4.5,25.5-19,32.5c0,0,13.5-3.5,19-10S51.6,18.1,51.6,18.1z"/>
	<path opacity="0.34" fill="#D3CCC7" d="M94.3,50.6c0,0-28.4,20.5-53.3,6.8C41.1,57.3,58.8,61.3,94.3,50.6z"/>
</g>
</svg>
